<svg width="28" height="30" viewBox="0 0 28 30" fill="none" xmlns="http://www.w3.org/2000/svg">
<path d="M18 14C18 12.4087 17.3679 10.8826 16.2426 9.75736C15.1174 8.63214 13.5913 8 12 8C10.4087 8 8.88258 8.63214 7.75736 9.75736C6.63214 10.8826 6 12.4087 6 14C6 21 3 23 3 23H21C21 23 18 21 18 14Z" stroke="#8C8C8C" stroke-width="2" stroke-linecap="round" stroke-linejoin="round"/>
<path d="M13.7295 27C13.5537 27.3031 13.3014 27.5547 12.9978 27.7295C12.6941 27.9044 12.3499 27.9965 11.9995 27.9965C11.6492 27.9965 11.3049 27.9044 11.0013 27.7295C10.6977 27.5547 10.4453 27.3031 10.2695 27" stroke="#8C8C8C" stroke-width="2" stroke-linecap="round" stroke-linejoin="round"/>
<circle cx="20.5" cy="7.5" r="7.5" fill="#895EF7"/>
</svg>
