<svg width="126" height="126" viewBox="0 0 126 126" fill="none" xmlns="http://www.w3.org/2000/svg">
<path d="M63.0002 105C86.1962 105 105 86.1959 105 63C105 39.804 86.1962 21 63.0002 21C39.8043 21 21.0002 39.804 21.0002 63C21.0002 86.1959 39.8043 105 63.0002 105Z" fill="#FCEA2B"/>
<path d="M43.8243 37.1649L57.7999 35.0636L50.9667 47.4347L57.2837 60.0771L43.4065 57.4012L33.3349 67.3158L31.5918 53.2909L19.05 46.776L31.8499 40.784L34.1702 26.843L43.8243 37.1649Z" fill="#F1B31C"/>
<path d="M82.0438 37.1649L68.0681 35.0636L74.9013 47.4347L68.5844 60.0771L82.4615 57.4012L92.5331 67.3158L94.2763 53.2909L106.818 46.776L94.0182 40.784L91.6978 26.843L82.0438 37.1649Z" fill="#F1B31C"/>
<path d="M87.0398 81.1229C83.9073 88.5954 75.9273 93.7754 63.0648 93.7754C50.0973 93.7754 42.0123 88.4729 38.9148 80.8954C42.4673 81.7004 65.1298 86.4427 87.0398 81.1229Z" fill="#EA5A47"/>
<path d="M88.5627 73.2654C88.5627 76.0654 88.0551 78.7079 87.0401 81.1229C65.1301 86.4429 42.4676 81.7004 38.9151 80.8954C37.9526 78.5329 37.4626 75.9604 37.4626 73.2654H37.6551C37.6551 73.2654 63.5726 79.5479 88.2127 73.3879L88.5627 73.2654Z" fill="white"/>
<path d="M88.5624 73.2655C88.5624 76.0655 88.0549 78.708 87.0399 81.123C65.1299 86.443 42.4674 81.7005 38.9149 80.8955C37.9524 78.533 37.4624 75.9605 37.4624 73.2655H37.6549C37.6549 73.2655 63.5724 79.548 88.2124 73.388L88.5624 73.2655Z" stroke="black" stroke-width="2" stroke-miterlimit="10" stroke-linecap="round" stroke-linejoin="round"/>
<path d="M87.04 81.123C83.9075 88.5955 75.9275 93.7755 63.065 93.7755C50.0975 93.7755 42.0125 88.473 38.915 80.8955C42.4675 81.7005 65.13 86.4428 87.04 81.123Z" stroke="black" stroke-width="2" stroke-miterlimit="10" stroke-linejoin="round"/>
<path d="M87.8973 80.913C87.6173 80.983 87.3198 81.053 87.0398 81.123" stroke="black" stroke-width="2" stroke-miterlimit="10" stroke-linejoin="round"/>
<path d="M38.9151 80.8955C38.5826 80.808 38.425 80.7729 38.425 80.7729" stroke="black" stroke-width="2" stroke-miterlimit="10" stroke-linejoin="round"/>
<path d="M81.4699 27.2284C75.9381 24.3665 69.6579 22.75 63.0001 22.75C56.0795 22.75 49.5671 24.4963 43.8794 27.5723C43.7915 27.6197 43.704 27.6675 43.6167 27.7156" stroke="black" stroke-width="2" stroke-miterlimit="10" stroke-linecap="round" stroke-linejoin="round"/>
<path d="M23.0902 57.7419C22.8657 59.4627 22.75 61.2178 22.75 63C22.75 85.2288 40.7696 103.25 63 103.25C85.2288 103.25 103.25 85.2288 103.25 63C103.25 61.2372 103.137 59.5009 102.917 57.7979" stroke="black" stroke-width="2" stroke-miterlimit="10" stroke-linecap="round" stroke-linejoin="round"/>
<path d="M43.9564 37.1649L57.932 35.0636L51.0988 47.4347L57.4158 60.0771L43.5386 57.4012L33.467 67.3158L31.7239 53.2909L19.1821 46.776L31.982 40.784L34.3023 26.843L43.9564 37.1649Z" stroke="black" stroke-width="2" stroke-miterlimit="10" stroke-linecap="round" stroke-linejoin="round"/>
<path d="M82.0438 37.1649L68.0681 35.0636L74.9013 47.4347L68.5844 60.0771L82.4615 57.4012L92.5331 67.3158L94.2763 53.2909L106.818 46.776L94.0182 40.784L91.6978 26.843L82.0438 37.1649Z" stroke="black" stroke-width="2" stroke-miterlimit="10" stroke-linecap="round" stroke-linejoin="round"/>
</svg>
