<svg width="120" height="23" viewBox="0 0 120 23" fill="none" xmlns="http://www.w3.org/2000/svg">
<path d="M6.04714 6.47467H1.25218C0.824609 6.47467 0.509018 6.39361 0.305411 6.23149C0.101804 6.06937 0 5.77553 0 5.34996V1.45908C0 1.03352 0.101804 0.739674 0.305411 0.577553C0.509018 0.415433 0.824609 0.334373 1.25218 0.334373H17.7444C18.1719 0.334373 18.4875 0.415433 18.6911 0.577553C18.8948 0.739674 18.9966 1.03352 18.9966 1.45908V5.34996C18.9966 5.77553 18.8948 6.06937 18.6911 6.23149C18.4875 6.39361 18.1719 6.47467 17.7444 6.47467H12.7662L12.9494 21.3087C12.9494 21.8355 12.868 22.1902 12.7051 22.3726C12.5422 22.5752 12.2368 22.6765 11.7889 22.6765H7.39094C6.96337 22.6765 6.65796 22.5752 6.47471 22.3726C6.31183 22.1902 6.23038 21.8355 6.23038 21.3087L6.04714 6.47467Z" fill="#6438E0"/>
<path d="M28.2104 14.4084L28.2715 16.5362H34.1354C34.563 16.5362 34.8786 16.6274 35.0822 16.8098C35.2858 16.9719 35.3876 17.2557 35.3876 17.6609V21.5214C35.3876 21.947 35.2858 22.2408 35.0822 22.403C34.8786 22.5853 34.563 22.6765 34.1354 22.6765H22.9879C22.4585 22.6765 22.1022 22.5549 21.919 22.3118C21.7357 22.0889 21.6339 21.6734 21.6135 21.0655L21.3387 1.91504C21.3183 1.32736 21.4099 0.922058 21.6135 0.699143C21.8375 0.455963 22.2142 0.334373 22.7436 0.334373H35.1127C35.5403 0.334373 35.8559 0.415433 36.0595 0.577553C36.2631 0.739674 36.3649 1.03352 36.3649 1.45908V5.34996C36.3649 5.75526 36.2631 6.0491 36.0595 6.23149C35.8559 6.39361 35.5403 6.47467 35.1127 6.47467H28.0577L28.0883 8.26812H34.0438C34.4714 8.26812 34.7869 8.34918 34.9905 8.5113C35.1942 8.67342 35.296 8.96726 35.296 9.39283V13.2837C35.296 13.7093 35.1942 14.0031 34.9905 14.1652C34.7869 14.3274 34.4714 14.4084 34.0438 14.4084H28.2104Z" fill="#6438E0"/>
<path d="M38.4512 21.8558C38.1051 21.7545 37.871 21.6126 37.7488 21.4302C37.6266 21.2276 37.6368 20.9135 37.7793 20.4879L44.1013 1.70226C44.2642 1.19563 44.4576 0.840997 44.6816 0.638347C44.9056 0.435697 45.2619 0.334373 45.7506 0.334373H50.179C50.6677 0.334373 51.024 0.435697 51.248 0.638347C51.4719 0.840997 51.6653 1.19563 51.8282 1.70226L58.1502 20.4879C58.2928 20.9135 58.3029 21.2276 58.1808 21.4302C58.0586 21.6126 57.8245 21.7545 57.4783 21.8558L53.6912 22.9501C53.1008 23.1122 52.7037 22.8792 52.5001 22.251L51.5534 19.2112H44.3457L43.4294 22.251C43.2258 22.8792 42.8288 23.1122 42.2383 22.9501L38.4512 21.8558ZM47.9495 7.3258L46.117 13.3749H49.782L47.9495 7.3258Z" fill="#6438E0"/>
<path d="M74.8999 1.45908C75.0628 0.972721 75.2257 0.668746 75.3885 0.547156C75.5718 0.405301 75.8874 0.334373 76.3353 0.334373H80.3667C80.835 0.334373 81.1913 0.425565 81.4357 0.60795C81.7004 0.790335 81.8633 1.1855 81.9243 1.79345L84.0622 21.1263C84.1029 21.4708 84.0927 21.7241 84.0317 21.8862C83.9706 22.0483 83.7873 22.1497 83.4819 22.1902L78.8702 22.8589C78.5241 22.8995 78.2899 22.8792 78.1678 22.7981C78.0456 22.7171 77.9642 22.5448 77.9234 22.2814L76.8851 13.2229L74.7472 21.7038C74.6454 22.0483 74.5028 22.2915 74.3196 22.4334C74.1567 22.5955 73.9022 22.6765 73.5561 22.6765H70.1965C69.8504 22.6765 69.5857 22.5955 69.4025 22.4334C69.2396 22.2915 69.1073 22.0483 69.0054 21.7038L66.837 13.2229L65.8292 22.2814C65.7885 22.5448 65.707 22.7171 65.5848 22.7981C65.4627 22.8792 65.2285 22.8995 64.8824 22.8589L60.2707 22.1902C59.9653 22.1497 59.782 22.0483 59.721 21.8862C59.6599 21.7241 59.6497 21.4708 59.6904 21.1263L61.8283 1.79345C61.8894 1.1855 62.0421 0.790335 62.2864 0.60795C62.5511 0.425565 62.9176 0.334373 63.3859 0.334373H67.4173C67.8652 0.334373 68.1707 0.405301 68.3335 0.547156C68.5168 0.668746 68.6899 0.972721 68.8527 1.45908L71.8763 11.3079L74.8999 1.45908Z" fill="#6438E0"/>
<path d="M96.5642 7.78176C96.5642 7.31567 96.4523 6.93063 96.2283 6.62666C96.0247 6.30242 95.7498 6.05924 95.4037 5.89712C95.0372 5.735 94.6096 5.6438 94.121 5.62354C93.6527 5.60327 93.164 5.6438 92.655 5.74513L92.7466 10.6087C95.2917 10.4871 96.5642 9.54482 96.5642 7.78176ZM85.7832 2.91816C85.7629 2.51286 85.7527 2.18862 85.7527 1.94544C85.7731 1.682 85.8341 1.46921 85.936 1.30709C86.0174 1.16524 86.1701 1.05378 86.3941 0.972721C86.6384 0.871396 86.9743 0.759938 87.4019 0.638347C88.2571 0.415432 89.2344 0.243181 90.3339 0.121591C91.4537 5.91362e-07 92.5939 -0.0303979 93.7545 0.0303975C94.915 0.0911929 96.0451 0.263446 97.1445 0.547156C98.2644 0.830866 99.262 1.25643 100.138 1.82385C101.013 2.39127 101.716 3.12081 102.245 4.01247C102.774 4.88387 103.039 5.95791 103.039 7.23461C103.039 8.93687 102.754 10.3554 102.184 11.4903C101.614 12.6251 100.86 13.537 99.9238 14.226C98.9668 14.915 97.8673 15.4115 96.6253 15.7155C95.4037 16.0195 94.1311 16.2019 92.8077 16.2627L92.8993 21.3087C92.9197 21.8355 92.8382 22.1902 92.655 22.3726C92.4921 22.5752 92.1867 22.6765 91.7388 22.6765H87.5852C87.1576 22.6765 86.8624 22.5752 86.6995 22.3726C86.5366 22.1902 86.445 21.8355 86.4246 21.3087L85.7832 2.91816Z" fill="#6438E0"/>
<path d="M118.748 16.5362C119.175 16.5362 119.491 16.6173 119.695 16.7794C119.898 16.9415 120 17.2354 120 17.6609V21.5214C120 21.947 119.898 22.2408 119.695 22.403C119.491 22.5853 119.175 22.6765 118.748 22.6765H106.44C105.91 22.6765 105.544 22.5549 105.34 22.3118C105.157 22.0889 105.055 21.6734 105.035 21.0655L104.699 1.91504C104.679 1.32736 104.77 0.922058 104.974 0.699143C105.198 0.455963 105.574 0.334373 106.104 0.334373H110.074C110.604 0.334373 110.96 0.455963 111.143 0.699143C111.326 0.922058 111.428 1.32736 111.448 1.91504L111.815 16.5362H118.748Z" fill="#6438E0"/>
</svg>
