<svg width="15" height="15" viewBox="0 0 15 15" fill="none" xmlns="http://www.w3.org/2000/svg">
<path d="M13.125 7.18749C13.1271 8.0124 12.9344 8.82616 12.5625 9.56249C12.1215 10.4448 11.4436 11.187 10.6047 11.7058C9.76572 12.2246 8.7989 12.4996 7.8125 12.5C6.98758 12.5021 6.17382 12.3094 5.4375 11.9375L1.875 13.125L3.0625 9.56249C2.69058 8.82616 2.49785 8.0124 2.5 7.18749C2.50038 6.20109 2.77538 5.23427 3.2942 4.39533C3.81302 3.55639 4.55516 2.87847 5.4375 2.43749C6.17382 2.06557 6.98758 1.87284 7.8125 1.87499H8.125C9.42772 1.94686 10.6582 2.49671 11.5807 3.41927C12.5033 4.34183 13.0531 5.57227 13.125 6.87499V7.18749Z" stroke="#895EF7" stroke-linecap="round" stroke-linejoin="round"/>
</svg>
