<svg width="126" height="126" viewBox="0 0 126 126" fill="none" xmlns="http://www.w3.org/2000/svg">
<path d="M63 103.25C85.2295 103.25 103.25 85.2295 103.25 63C103.25 40.7705 85.2295 22.75 63 22.75C40.7705 22.75 22.75 40.7705 22.75 63C22.75 85.2295 40.7705 103.25 63 103.25Z" fill="#FCEA2B"/>
<path d="M26.3599 11.2814L29.8599 37.5314L57.8599 27.0314L26.3599 11.2814Z" fill="#F4AA41"/>
<path d="M47.2217 21.7114L57.86 27.0314L34.8457 35.6624" fill="#E27022"/>
<path d="M26.9426 18.9604L36.0864 15.4306L41.0441 18.5141L27.2349 24.4064L26.9426 18.9604Z" fill="#EA5A47"/>
<path d="M44.4864 21.6869L46.4849 20.9064L53.4849 22.6564L42.1099 27.5301" fill="#D22F27"/>
<path d="M42.1099 27.5301L28.9779 33.1564L28.6926 27.8469L44.4864 21.6869" fill="#EA5A47"/>
<path d="M63.7869 73.7068C63.7869 73.7068 82.251 79.146 63.8677 83.4432C63.8677 83.4432 82.2114 88.5204 63.9391 92.0397" stroke="black" stroke-width="2" stroke-linecap="round" stroke-linejoin="round"/>
<path d="M36.7844 47.8713C38.0241 45.4368 40.1227 43.5486 42.6742 42.5723C45.1228 41.328 47.9475 41.0419 50.5958 41.7699" stroke="black" stroke-width="2" stroke-linecap="round" stroke-linejoin="round"/>
<path d="M88.6006 47.4411C85.7912 42.6123 80.1342 40.2141 74.7102 41.5527" stroke="black" stroke-width="2" stroke-linecap="round" stroke-linejoin="round"/>
<path d="M41.0442 60.1627C45.4323 57.9219 50.6195 57.8788 55.0442 60.0465" stroke="black" stroke-width="2" stroke-linecap="round" stroke-linejoin="round"/>
<path d="M71.23 59.9121C75.6181 57.6713 80.8053 57.6282 85.23 59.7958" stroke="black" stroke-width="2" stroke-linecap="round" stroke-linejoin="round"/>
<path d="M80.4082 26.7645C100.444 36.3942 108.88 60.4431 99.2507 80.479C89.6209 100.515 65.5721 108.951 45.5362 99.3214C25.5002 89.6917 17.064 65.643 26.6937 45.6069C27.3673 44.2055 28.1216 42.8442 28.9525 41.5301" stroke="black" stroke-width="2" stroke-linecap="round" stroke-linejoin="round"/>
<path d="M61.1738 22.8412C61.6595 22.8197 62.1473 22.8069 62.6372 22.8029C68.7863 22.7428 74.8669 24.0984 80.4083 26.7645" stroke="black" stroke-width="2" stroke-linecap="round" stroke-linejoin="round"/>
<path d="M30.4227 36.7152L25.4851 10.4652" stroke="black" stroke-width="2" stroke-linecap="round" stroke-linejoin="round"/>
<path d="M58.7351 26.6802L25.4851 10.4652" stroke="black" stroke-width="2" stroke-linecap="round" stroke-linejoin="round"/>
<path d="M30.4229 36.7152L58.7352 26.6802" stroke="black" stroke-width="2" stroke-linecap="round" stroke-linejoin="round"/>
<path d="M108.406 20.3226C108.281 21.2252 108.012 22.102 107.609 22.9196C105.354 27.331 100.021 29.1781 95.5201 27.1065" stroke="black" stroke-width="2" stroke-linecap="round" stroke-linejoin="round"/>
<path d="M116.247 75.8609C115.357 75.6621 114.505 75.3221 113.723 74.854C109.51 72.246 108.105 66.7788 110.538 62.4624" stroke="black" stroke-width="2" stroke-linecap="round" stroke-linejoin="round"/>
<path d="M108.406 110.194C108.281 109.292 108.012 108.415 107.609 107.597C105.354 103.186 100.021 101.339 95.5201 103.41" stroke="black" stroke-width="2" stroke-linecap="round" stroke-linejoin="round"/>
<path d="M43.294 97.8688C42.7197 97.1612 42.0356 96.5503 41.2679 96.0591C37.0551 93.4504 31.5344 94.6299 28.7554 98.7324" stroke="black" stroke-width="2" stroke-linecap="round" stroke-linejoin="round"/>
<path d="M108.87 44.554C110.32 44.5037 111.454 43.2878 111.404 41.838C111.356 40.4588 110.249 39.3517 108.87 39.304C107.42 39.3542 106.286 40.5701 106.336 42.02C106.384 43.3991 107.491 44.5062 108.87 44.554Z" fill="black"/>
<path d="M108.87 88.304C110.32 88.2537 111.454 87.0378 111.404 85.588C111.356 84.2088 110.249 83.1017 108.87 83.054C107.42 83.1042 106.286 84.3201 106.336 85.77C106.384 87.1491 107.491 88.2562 108.87 88.304Z" fill="black"/>
<path d="M51.1203 116.304C52.57 116.254 53.7045 115.038 53.6543 113.588C53.6065 112.209 52.4995 111.102 51.1203 111.054C49.6706 111.104 48.5361 112.32 48.5863 113.77C48.6341 115.149 49.7411 116.256 51.1203 116.304Z" fill="black"/>
<path d="M35.3703 84.804C36.82 84.7537 37.9545 83.5378 37.9043 82.088C37.8565 80.7088 36.7495 79.6017 35.3703 79.554C33.9206 79.6042 32.7861 80.8201 32.8363 82.27C32.8841 83.6491 33.9911 84.7562 35.3703 84.804Z" fill="black"/>
<path d="M77.3703 112.804C78.82 112.754 79.9545 111.538 79.9043 110.088C79.8565 108.709 78.7495 107.602 77.3703 107.554C75.9206 107.604 74.7861 108.82 74.8363 110.27C74.8841 111.649 75.9911 112.756 77.3703 112.804Z" fill="black"/>
<path d="M67.4851 83.9652H77.1101C77.1101 83.9652 86.7351 83.9652 86.7351 78.7152C86.7351 74.8094 84.0714 73.8094 80.7258 73.5527" stroke="black" stroke-width="2" stroke-linecap="round" stroke-linejoin="round"/>
<path d="M108.87 44.5498C110.32 44.4995 111.455 43.2836 111.404 41.8338C111.357 40.4546 110.249 39.3475 108.87 39.2998C107.421 39.35 106.286 40.5659 106.336 42.0158C106.384 43.3949 107.491 44.502 108.87 44.5498Z" fill="#8967AA"/>
<path d="M77.3703 112.8C78.82 112.75 79.9545 111.534 79.9043 110.084C79.8565 108.705 78.7495 107.598 77.3703 107.55C75.9206 107.6 74.7861 108.816 74.8363 110.266C74.8841 111.645 75.9911 112.752 77.3703 112.8Z" fill="#8967AA"/>
<path d="M51.1203 116.3C52.57 116.25 53.7045 115.034 53.6543 113.584C53.6065 112.205 52.4995 111.098 51.1203 111.05C49.6706 111.1 48.5361 112.316 48.5863 113.766C48.6341 115.145 49.7411 116.252 51.1203 116.3Z" fill="#F4AA41"/>
<path d="M35.3703 84.7998C36.82 84.7495 37.9545 83.5336 37.9043 82.0837C37.8565 80.7046 36.7495 79.5975 35.3703 79.5498C33.9206 79.6 32.7861 80.8159 32.8363 82.2657C32.8841 83.6449 33.9911 84.752 35.3703 84.7998Z" fill="#D22F27"/>
<path d="M108.87 88.2998C110.32 88.2495 111.455 87.0336 111.404 85.5837C111.357 84.2046 110.249 83.0975 108.87 83.0498C107.421 83.1 106.286 84.3159 106.336 85.7657C106.384 87.1449 107.491 88.252 108.87 88.2998Z" fill="#D22F27"/>
</svg>
