<svg width="126" height="126" viewBox="0 0 126 126" fill="none" xmlns="http://www.w3.org/2000/svg">
<path d="M63 105.35C86.196 105.35 105 86.5458 105 63.3499C105 40.1539 86.196 21.3499 63 21.3499C39.804 21.3499 21 40.1539 21 63.3499C21 86.5458 39.804 105.35 63 105.35Z" fill="#FCEA2B"/>
<path d="M33.4256 109.025C32.9006 106.925 32.7256 104.825 32.9006 102.725C33.2506 100.8 36.9256 91.3499 37.6256 89.9499C38.3256 88.5499 40.0756 82.0749 41.8256 81.5499C43.5756 81.0249 43.9256 81.7249 43.7506 82.7749C43.5756 83.8249 42.7006 96.2499 42.7006 96.2499L59.1506 91.3499C59.1506 91.3499 72.6256 88.0249 72.9756 89.5999C76.6506 93.0999 63.5256 97.4749 59.8506 97.2999C59.8506 97.2999 61.7756 98.3499 61.4256 99.5749C61.0756 100.8 60.0256 101.675 59.6756 101.675C59.3256 101.675 60.5506 102.55 60.7256 104.125C62.3006 107.275 55.8256 108.15 55.8256 108.15C58.1006 107.8 61.6006 111.825 56.0006 112.875C54.2506 113.4 47.6006 115.325 47.6006 115.325C47.6006 115.325 41.8256 117.425 38.5006 115.15C36.4006 113.75 34.4756 111.65 33.4256 109.025Z" fill="#FCEA2B"/>
<path d="M50.5752 77.8751C54.7752 76.6501 71.4002 78.7501 75.2502 81.5501" stroke="black" stroke-width="2" stroke-linecap="round" stroke-linejoin="round"/>
<path d="M39.2002 39.3749C41.4752 37.7999 44.1002 37.0999 46.9002 37.4499C49.7002 37.4499 52.3252 38.4999 54.2502 40.4249" stroke="black" stroke-width="2" stroke-linecap="round" stroke-linejoin="round"/>
<path d="M89.4252 46.3751C84.7002 45.1501 79.8002 44.9751 75.0752 45.8501" stroke="black" stroke-width="2" stroke-linecap="round" stroke-linejoin="round"/>
<path d="M73.5 102.2C95.025 96.425 107.625 74.375 101.85 52.85C96.075 31.325 74.025 18.725 52.5 24.5C35 29.225 22.75 45.15 22.75 63.35C22.75 71.4 25.2 79.4499 29.75 86.0999" stroke="black" stroke-width="2" stroke-linecap="round" stroke-linejoin="round"/>
<path d="M54.25 53.7251C54.25 56.7001 51.975 58.9751 49 58.9751C46.025 58.9751 43.75 56.7001 43.75 53.7251C43.75 50.7501 46.025 48.4751 49 48.4751C51.975 48.4751 54.25 50.7501 54.25 53.7251Z" fill="black"/>
<path d="M84 58.9751C84 61.9501 81.725 64.2251 78.75 64.2251C75.775 64.2251 73.5 61.9501 73.5 58.9751C73.5 56.0001 75.775 53.7251 78.75 53.7251C81.725 53.7251 84 56.0001 84 58.9751Z" fill="black"/>
<path d="M34.4742 99.2248C32.7242 102.025 32.3742 105.7 33.5992 108.85C35.5242 114.625 40.5992 117.95 46.1992 116.2L54.7743 113.75L56.5243 113.225C57.9243 112.875 58.7993 111.3 58.4493 110.075C58.0993 109.2 57.3993 108.5 56.3493 108.325L58.4493 107.8C59.8493 107.45 60.7243 105.875 60.3743 104.65C60.0243 103.775 59.3243 102.9 58.2743 102.725L60.3743 102.025C61.7743 101.675 62.6492 100.1 62.2992 98.8748C62.1242 97.9998 61.4243 97.2998 60.5493 97.1248L71.7493 93.7998C73.1493 93.4498 74.0243 91.8748 73.6743 90.6498C73.3243 89.4248 71.7493 88.3748 70.5243 88.7248L52.6743 93.9748L43.7492 96.5998L44.7992 82.9498C44.9742 81.3748 42.1742 80.8498 41.1242 83.2998L34.4742 99.2248Z" stroke="black" stroke-width="2" stroke-linecap="round" stroke-linejoin="round"/>
</svg>
