<svg width="22" height="22" viewBox="0 0 22 22" fill="none" xmlns="http://www.w3.org/2000/svg">
<circle cx="11" cy="11" r="11" fill="#EEEEEE"/>
<path d="M16.2967 16.8054V15.4813C16.2967 14.779 16.0177 14.1054 15.5211 13.6088C15.0244 13.1122 14.3509 12.8332 13.6485 12.8332H8.35225C7.64992 12.8332 6.97635 13.1122 6.47973 13.6088C5.9831 14.1054 5.7041 14.779 5.7041 15.4813V16.8054" stroke="#666666" stroke-linecap="round" stroke-linejoin="round"/>
<path d="M11.0007 10.185C12.4632 10.185 13.6488 8.99938 13.6488 7.53685C13.6488 6.07432 12.4632 4.8887 11.0007 4.8887C9.53816 4.8887 8.35254 6.07432 8.35254 7.53685C8.35254 8.99938 9.53816 10.185 11.0007 10.185Z" stroke="#666666" stroke-linecap="round" stroke-linejoin="round"/>
</svg>
